<svg width="25" height="25" viewBox="0 0 25 25" fill="none" xmlns="http://www.w3.org/2000/svg">
<g clip-path="url(#clip0_23_74)">
<path d="M18.8421 18.7774C17.1327 20.0804 15.0512 20.8022 12.9021 20.8374C5.9021 20.8374 1.9021 12.8374 1.9021 12.8374C3.14599 10.5192 4.87123 8.49396 6.9621 6.89735M10.8021 5.07735C11.4904 4.91623 12.1952 4.83569 12.9021 4.83735C19.9021 4.83735 23.9021 12.8374 23.9021 12.8374C23.2951 13.973 22.5712 15.0421 21.7421 16.0274M15.0221 14.9574C14.7475 15.2521 14.4162 15.4885 14.0483 15.6525C13.6803 15.8164 13.283 15.9046 12.8802 15.9117C12.4774 15.9188 12.0773 15.8447 11.7037 15.6938C11.3302 15.543 10.9908 15.3184 10.7059 15.0335C10.4211 14.7486 10.1965 14.4093 10.0456 14.0357C9.89472 13.6622 9.82063 13.2621 9.82773 12.8593C9.83484 12.4564 9.92301 12.0592 10.087 11.6912C10.2509 11.3232 10.4874 10.992 10.7821 10.7174" stroke="black" stroke-width="2" stroke-linecap="round" stroke-linejoin="round"/>
<path d="M1.9021 1.83736L23.9021 23.8374" stroke="black" stroke-width="2" stroke-linecap="round" stroke-linejoin="round"/>
</g>
<defs>
<clipPath id="clip0_23_74">
<rect width="24" height="24" fill="white" transform="translate(0.9021 0.837357)"/>
</clipPath>
</defs>
</svg>
